<svg width="175" height="34" viewBox="0 0 175 34" fill="none" xmlns="http://www.w3.org/2000/svg">
<path d="M165.817 7.89893C166.428 7.5931 167.05 7.44019 167.68 7.44019C168.311 7.44019 168.818 7.64089 169.2 8.04229C169.601 8.44369 169.802 9.03624 169.802 9.81993C169.802 10.6036 169.754 11.4924 169.659 12.4864C171.092 12.4864 172.459 12.2857 173.759 11.8843C173.988 12.2666 174.103 12.7158 174.103 13.2318C174.103 13.7288 173.873 14.1398 173.415 14.4647C172.975 14.7705 172.526 14.9235 172.067 14.9235C171.608 14.9235 171.092 14.8661 170.519 14.7514C169.945 14.6367 169.573 14.5698 169.401 14.5507C169.382 14.7228 169.324 15.0668 169.229 15.5829C169.152 16.099 169.085 16.5482 169.028 16.9305C168.875 17.9818 168.799 19.1095 168.799 20.3137C168.799 22.9324 169.649 24.2417 171.35 24.2417C171.981 24.2417 172.707 24.0219 173.529 23.5823C173.778 23.9454 173.902 24.4137 173.902 24.9872C173.902 25.5606 173.587 26.0098 172.956 26.3347C172.344 26.6406 171.608 26.7935 170.748 26.7935C167.384 26.7935 165.702 24.882 165.702 21.0592C165.702 20.5049 165.779 19.5014 165.931 18.0487C166.103 16.596 166.189 15.4204 166.189 14.5221C165.272 14.5794 164.536 14.7419 163.982 15.0095C163.752 14.6654 163.638 14.2736 163.638 13.8339C163.638 13.3752 163.8 13.0025 164.125 12.7158C164.45 12.4099 164.851 12.257 165.329 12.257C165.807 12.257 166.123 12.2666 166.275 12.2857C166.295 12.1328 166.304 11.9321 166.304 11.6836C166.304 10.25 166.142 8.98845 165.817 7.89893Z" fill="#02060C"/>
<path d="M162.179 13.1173C161.662 15.3155 161.404 17.5232 161.404 19.7404C161.404 21.9386 161.653 24.1176 162.15 26.2775C161.462 26.5069 160.755 26.6216 160.028 26.6216C159.302 26.6216 158.795 26.4113 158.509 25.9908C158.222 25.5512 158.079 24.93 158.079 24.1272C158.079 23.3053 158.203 22.1871 158.451 20.7726C157.094 23.678 155.785 25.513 154.523 26.2775C153.95 26.6216 153.357 26.7936 152.746 26.7936C151.293 26.7936 150.165 26.2584 149.362 25.188C148.56 24.0985 148.158 22.7509 148.158 21.1453C148.158 18.6987 148.837 16.5579 150.194 14.7229C151.551 12.8688 153.31 11.9418 155.469 11.9418C157.648 11.9418 159.885 12.3336 162.179 13.1173ZM158.423 14.8376C157.41 14.5318 156.549 14.3789 155.842 14.3789C154.409 14.3789 153.338 14.6942 152.631 15.325C151.981 16.9306 151.656 18.5649 151.656 20.2278C151.656 21.1071 151.79 21.9959 152.058 22.8943C152.344 23.7927 152.774 24.2419 153.348 24.2419C154.017 24.2419 154.877 23.2575 155.928 21.2887C156.979 19.3199 157.811 17.1696 158.423 14.8376Z" fill="#02060C"/>
<path d="M145.641 15.0383L145.355 21.174C145.355 23.0281 145.622 24.7866 146.157 26.4496C145.622 26.6789 145.011 26.7936 144.322 26.7936C142.698 26.7936 141.885 25.8857 141.885 24.0698C141.885 23.2479 141.99 21.8717 142.201 19.9411C142.411 17.9915 142.516 16.7681 142.516 16.2712C142.516 15.3155 142.124 14.8376 141.341 14.8376C140.48 14.8376 139.448 15.7169 138.244 17.4754C137.059 19.2339 136.466 20.6101 136.466 21.6041C136.562 23.1141 136.83 24.6146 137.269 26.1055C136.543 26.3349 135.931 26.4496 135.434 26.4496C133.81 26.4496 132.997 25.5416 132.997 23.7258C132.997 22.9612 133.102 21.6805 133.313 19.8838C133.523 18.087 133.628 16.9593 133.628 16.5005C133.628 15.5448 133.198 15.067 132.338 15.067C131.745 15.067 131.067 15.5066 130.302 16.3859C129.537 17.2651 128.888 18.24 128.352 19.3104C127.836 20.3616 127.559 21.2027 127.521 21.8335C127.616 23.4773 127.808 24.9587 128.094 26.2775C127.483 26.5069 126.842 26.6216 126.173 26.6216C125.523 26.6216 124.988 26.4687 124.568 26.1629C124.166 25.8379 123.966 25.3983 123.966 24.844C123.966 24.2705 124.052 23.2575 124.224 21.8048C124.396 20.333 124.482 18.8803 124.482 17.4467C124.482 15.994 124.262 14.3311 123.822 12.4579C124.434 12.2285 125.084 12.1138 125.772 12.1138C126.46 12.1138 127.014 12.3145 127.435 12.7159C127.875 13.1173 128.094 13.6525 128.094 14.3215C128.094 14.6656 128.027 15.5066 127.894 16.8446C128.601 15.5831 129.499 14.4935 130.589 13.5761C131.678 12.6394 132.768 12.1711 133.857 12.1711C135.788 12.1711 136.753 13.2033 136.753 15.2677C136.753 15.7838 136.724 16.3572 136.667 16.988C137.374 15.65 138.282 14.4744 139.391 13.4614C140.519 12.4483 141.637 11.9418 142.745 11.9418C144.676 11.9418 145.641 12.9739 145.641 15.0383Z" fill="#02060C"/>
<path d="M108.229 21.862L108.516 17.7333C108.516 15.8792 108.248 14.1207 107.713 12.4577C108.248 12.2283 108.908 12.1136 109.691 12.1136C111.22 12.1136 111.985 12.9642 111.985 14.6654C111.985 15.43 111.88 16.51 111.67 17.9053C111.459 19.3006 111.354 20.2659 111.354 20.8011C111.354 21.3172 111.364 21.6995 111.383 21.948C111.402 22.1774 111.45 22.4545 111.526 22.7795C111.641 23.4294 112.014 23.7543 112.644 23.7543C113.294 23.7543 113.982 23.2478 114.709 22.2347C115.454 21.2025 116.047 20.0652 116.486 18.8228C116.945 17.5804 117.174 16.596 117.174 15.8696C117.079 14.3596 116.916 13.2223 116.687 12.4577C117.299 12.2283 117.92 12.1136 118.551 12.1136C119.201 12.1136 119.736 12.3143 120.156 12.7158C120.596 13.1172 120.816 13.6524 120.816 14.3214C120.816 24.7578 118.904 31.0178 115.081 33.1012C114.221 33.56 113.246 33.7893 112.157 33.7893C111.067 33.7893 110.112 33.5026 109.29 32.9292C108.487 32.3558 108.086 31.553 108.086 30.5208C108.086 29.8327 108.344 29.2497 108.86 28.7718C109.376 28.3131 109.987 28.0837 110.695 28.0837C110.848 28.0837 111.039 28.1028 111.268 28.141C111.211 28.3895 111.182 28.6093 111.182 28.8005C111.182 30.4826 111.765 31.3236 112.931 31.3236C113.638 31.3236 114.279 30.9413 114.852 30.1767C115.426 29.4121 115.884 28.4755 116.228 27.3669C116.897 25.1114 117.232 23.0662 117.232 21.2312C116.658 22.7795 115.875 24.0315 114.881 24.9872C113.906 25.9238 112.845 26.3921 111.698 26.3921C109.385 26.3921 108.229 24.882 108.229 21.862Z" fill="#02060C"/>
<path d="M101.016 5.46198C101.627 5.23261 102.258 5.11792 102.908 5.11792C103.558 5.11792 104.093 5.33774 104.513 5.77737C104.934 6.19788 105.144 6.73308 105.144 7.38297C105.144 8.01375 105.049 9.52378 104.858 11.9131C104.666 14.2833 104.571 16.6248 104.571 18.9376C104.571 21.2313 104.8 23.678 105.259 26.2775C104.571 26.5069 103.854 26.6216 103.109 26.6216C101.847 26.6216 101.216 25.7328 101.216 23.9551C101.216 23.3626 101.34 22.3017 101.589 20.7726C100.786 22.4738 100.069 23.7353 99.4386 24.5572C98.827 25.3791 98.2249 25.9621 97.6323 26.3062C97.0589 26.6311 96.4472 26.7936 95.7973 26.7936C94.3446 26.7936 93.2264 26.2584 92.4428 25.188C91.6782 24.1176 91.2959 22.7987 91.2959 21.2313C91.2959 19.664 91.5731 18.1921 92.1274 16.8159C92.7008 15.4206 93.5514 14.2641 94.6791 13.3467C95.826 12.4101 97.0398 11.9417 98.3204 11.9417C99.6011 11.9417 100.71 12.1138 101.646 12.4578C101.608 9.99208 101.398 7.66013 101.016 5.46198ZM101.646 14.8949C100.71 14.5509 99.6967 14.3788 98.6071 14.3788C97.5176 14.3788 96.581 14.6942 95.7973 15.325C95.1474 16.8733 94.8225 18.6031 94.8225 20.5145C94.8225 21.3938 94.9467 22.2348 95.1952 23.0376C95.4437 23.8404 95.8547 24.2418 96.4281 24.2418C97.3074 24.2418 98.3013 23.2575 99.4099 21.2887C100.538 19.3199 101.283 17.1886 101.646 14.8949Z" fill="#02060C"/>
<path d="M82.3896 26.9657C80.287 26.9657 78.7388 26.354 77.7448 25.1307C76.7509 23.8883 76.2539 22.168 76.2539 19.9698C76.2539 17.7526 76.9134 15.8316 78.2322 14.2069C79.5511 12.5821 81.2428 11.7698 83.3071 11.7698C87.5505 11.7698 89.6722 14.1591 89.6722 18.9377C89.6722 21.174 88.9841 23.0759 87.6078 24.6433C86.2316 26.1916 84.4922 26.9657 82.3896 26.9657ZM80.3253 14.9236C79.9812 16.0323 79.8092 17.1409 79.8092 18.2495C79.8092 19.3582 79.8474 20.2183 79.9239 20.83C80.0003 21.4416 80.1437 22.0533 80.3539 22.665C80.7936 23.9074 81.6537 24.5286 82.9344 24.5286C84.2342 24.5286 85.0847 24.1846 85.4861 23.4964C85.9067 22.8083 86.1169 21.7475 86.1169 20.3139C86.1169 16.2425 85.1516 14.2069 83.2211 14.2069C82.1125 14.2069 81.1472 14.4458 80.3253 14.9236Z" fill="#02060C"/>
<path d="M67.6328 26.9657C65.5302 26.9657 63.9819 26.354 62.988 25.1307C61.994 23.8883 61.4971 22.168 61.4971 19.9698C61.4971 17.7526 62.1565 15.8316 63.4754 14.2069C64.7943 12.5821 66.4859 11.7698 68.5503 11.7698C72.7937 11.7698 74.9154 14.1591 74.9154 18.9377C74.9154 21.174 74.2272 23.0759 72.851 24.6433C71.4748 26.1916 69.7354 26.9657 67.6328 26.9657ZM65.5684 14.9236C65.2244 16.0323 65.0523 17.1409 65.0523 18.2495C65.0523 19.3582 65.0906 20.2183 65.167 20.83C65.2435 21.4416 65.3868 22.0533 65.5971 22.665C66.0367 23.9074 66.8969 24.5286 68.1775 24.5286C69.4773 24.5286 70.3279 24.1846 70.7293 23.4964C71.1498 22.8083 71.3601 21.7475 71.3601 20.3139C71.3601 16.2425 70.3948 14.2069 68.4643 14.2069C67.3556 14.2069 66.3903 14.4458 65.5684 14.9236Z" fill="#02060C"/>
<path d="M52.2376 17.4466C52.2376 21.1356 52.4383 24.0792 52.8397 26.2774C52.228 26.5068 51.5781 26.6214 50.89 26.6214C50.2019 26.6214 49.5998 26.4016 49.0837 25.962C48.5867 25.5224 48.3382 24.9203 48.3382 24.1557C48.3382 23.372 48.4338 21.9002 48.625 19.7403C48.8161 17.5804 48.9117 15.9078 48.9117 14.7228C48.9117 11.7983 48.711 8.97889 48.3096 6.26465C49.724 6.37934 51.6259 6.43668 54.0152 6.43668C56.4045 6.43668 58.6887 6.26465 60.8677 5.92059C61.0971 6.34111 61.2118 6.84764 61.2118 7.44019C61.2118 8.01362 60.9824 8.5297 60.5236 8.98845C60.084 9.42808 59.5297 9.6479 58.8607 9.6479C58.2108 9.6479 57.1595 9.55232 55.7068 9.36118C54.2733 9.17004 53.2124 9.07446 52.5243 9.07446C52.3714 11.1579 52.2758 13.0694 52.2376 14.8088C53.3462 14.9235 54.5695 14.9808 55.9075 14.9808C57.2646 14.9808 58.4402 14.7801 59.4341 14.3787C59.6635 14.7992 59.7782 15.3057 59.7782 15.8983C59.7782 16.4717 59.5488 16.9974 59.0901 17.4752C58.6504 17.934 58.1248 18.1633 57.5131 18.1633C56.9015 18.1633 56.0222 18.0487 54.8754 17.8193C53.7285 17.5708 52.8492 17.4466 52.2376 17.4466Z" fill="#02060C"/>
<path d="M6.54519 33.0809L15.6074 23.8587L9.42986 14.1151L8.4398 7.86692L30.6788 31.441C30.6788 31.441 37.5154 27.2668 34.9617 13.2587C32.4079 -0.749419 15.6074 -1.28248 8.67973 4.02481C1.75211 9.3321 -3.66699 18.5514 6.54519 33.0809Z" fill="#E9004B"/>
<path d="M12.7467 25.1049L8.23624 30.4396C8.07974 30.6313 7.99317 30.8881 7.99515 31.1545C7.99714 31.421 8.08752 31.676 8.24685 31.8644C8.40618 32.0529 8.62171 32.1598 8.84703 32.1621C9.07235 32.1645 9.28944 32.0621 9.45155 31.877L13.962 26.5423C14.0416 26.4481 14.1048 26.3363 14.1479 26.2132C14.191 26.0902 14.2131 25.9583 14.2131 25.8251C14.2131 25.6919 14.191 25.56 14.1479 25.4369C14.1048 25.3139 14.0416 25.2021 13.962 25.1079C13.8823 25.0137 13.7878 24.939 13.6837 24.888C13.5797 24.837 13.4682 24.8108 13.3556 24.8108C13.2429 24.8108 13.1314 24.837 13.0274 24.888C12.9233 24.939 12.8288 25.0137 12.7492 25.1079L12.7467 25.1049Z" fill="#BD161C"/>
<path d="M31.697 30.5245L20.9439 19.7033L22.4837 18.1704C23.8477 18.9906 25.603 19.0952 26.4253 19.0952C26.6352 19.0952 26.7798 19.0952 26.8394 19.0952C26.9769 19.0877 27.1113 19.051 27.2336 18.9876C27.3558 18.9242 27.4631 18.8355 27.5483 18.7275L31.7537 13.382C31.9124 13.1798 31.9841 12.9231 31.953 12.6682C31.9218 12.4133 31.7905 12.1812 31.5878 12.023C31.3851 11.8647 31.1277 11.7932 30.8722 11.8242C30.6166 11.8553 30.3839 11.9863 30.2252 12.1884L26.3062 17.155C25.4957 17.1492 24.6921 17.0057 23.9299 16.7307L29.4936 11.1844C29.6707 11.0014 29.7687 10.7564 29.7665 10.502C29.7642 10.2477 29.6619 10.0044 29.4816 9.8246C29.3013 9.64476 29.0574 9.54274 28.8024 9.5405C28.5474 9.53826 28.3017 9.63598 28.1183 9.81262L22.5546 15.3618C22.2748 14.6016 22.1299 13.7986 22.1264 12.9888L27.2137 9.08574C27.3146 9.00811 27.3992 8.91142 27.4627 8.80118C27.5261 8.69095 27.5672 8.56932 27.5835 8.44326C27.5998 8.31719 27.5911 8.18916 27.5578 8.06646C27.5245 7.94376 27.4673 7.8288 27.3895 7.72814C27.3117 7.62748 27.2147 7.5431 27.1042 7.47982C26.9937 7.41653 26.8717 7.37558 26.7453 7.35929C26.6189 7.34301 26.4906 7.35172 26.3675 7.38492C26.2445 7.41811 26.1293 7.47516 26.0283 7.55278L20.5696 11.7415C20.4593 11.8266 20.3686 11.9342 20.3035 12.0571C20.2384 12.1801 20.2006 12.3155 20.1924 12.4543C20.1754 12.7541 20.079 15.096 21.1112 16.8014L19.577 18.3287L8.94303 7.63763C8.76078 7.45655 8.51403 7.35486 8.25678 7.3548C7.99971 7.35577 7.7533 7.45733 7.57053 7.63763L7.42591 7.78188C7.26625 7.94296 7.16625 8.15341 7.14233 8.37866C7.11681 8.66149 7.10547 8.97544 7.10547 9.2809C7.12532 12.4967 8.72751 16.2641 11.8667 20.4811C13.2745 22.3709 14.8275 24.1487 16.5116 25.7984C16.6142 25.8957 16.737 25.9694 16.8712 26.0144C17.0054 26.0593 17.1479 26.0744 17.2886 26.0586L19.2056 25.8436C19.4613 25.8147 19.695 25.6857 19.8553 25.485C20.0157 25.2842 20.0895 25.0281 20.0605 24.7731C20.0316 24.5181 19.9022 24.2849 19.7009 24.125C19.4997 23.9651 19.2429 23.8915 18.9872 23.9204L17.5325 24.0816C16.0749 22.6193 10.0546 16.3037 9.16138 10.6074L30.3188 31.8793C30.4094 31.9693 30.5169 32.0406 30.6351 32.0891C30.7534 32.1377 30.88 32.1625 31.0079 32.1621C31.1995 32.1615 31.3866 32.1045 31.5459 31.9982C31.7051 31.8919 31.8293 31.7411 31.9029 31.5647C31.9765 31.3883 31.9962 31.1941 31.9596 31.0065C31.923 30.819 31.8316 30.6464 31.697 30.5104V30.5245Z" fill="#BD161C"/>
<path d="M6.56449 34C6.35617 33.9988 6.15547 33.9164 6.00024 33.7685C3.7493 31.6029 2.04231 28.8728 1.03434 25.8264C0.0263715 22.78 -0.250622 19.5137 0.228523 16.3243C0.707668 13.135 1.92777 10.1236 3.77797 7.56379C5.62817 5.004 8.04984 2.9769 10.823 1.66668C13.5961 0.356457 16.6328 -0.195373 19.6572 0.0613264C22.6815 0.318025 25.5977 1.37512 28.1408 3.13656C30.6839 4.89801 32.7733 7.30798 34.2191 10.1475C35.6649 12.9871 36.4214 16.1662 36.4198 19.3961C36.4198 24.0111 34.5702 28.6759 31.215 32.532C31.1397 32.6184 31.049 32.6881 30.9484 32.7372C30.8477 32.7863 30.7389 32.8139 30.6282 32.8182C30.5176 32.8226 30.4072 32.8037 30.3034 32.7626C30.1996 32.7215 30.1044 32.6591 30.0232 32.5789C29.9421 32.4986 29.8766 32.4022 29.8304 32.295C29.7843 32.1878 29.7585 32.072 29.7544 31.9542C29.7503 31.8364 29.768 31.7189 29.8066 31.6084C29.8452 31.4979 29.9038 31.3965 29.9792 31.3101C33.0454 27.7939 34.7326 23.5569 34.7326 19.3961C34.7294 16.4691 34.0397 13.5892 32.7261 11.0178C31.4126 8.44634 29.5168 6.26475 27.2106 4.67091C24.9045 3.07706 22.261 2.12142 19.5201 1.89066C16.7791 1.65991 14.0275 2.16135 11.5147 3.3495C9.00187 4.53765 6.8075 6.3749 5.13063 8.69456C3.45376 11.0142 2.34746 13.7429 1.91209 16.633C1.47673 19.5232 1.72608 22.4833 2.63753 25.2448C3.54898 28.0064 5.09368 30.482 7.13148 32.447C7.25351 32.5699 7.33837 32.7287 7.37524 32.9031C7.4121 33.0776 7.39928 33.2598 7.33844 33.4265C7.27759 33.5931 7.17146 33.7367 7.03361 33.8389C6.89575 33.941 6.73243 33.9971 6.56449 34Z" fill="#BD161C"/>
</svg>
